<svg width="250" height="230" viewBox="0 0 250 230" fill="none" xmlns="http://www.w3.org/2000/svg">
<g clip-path="url(#clip0_468_1598)">
<path d="M132.305 166.384C127.383 166 122.773 165.961 118.242 166.192L111.836 200.577L77.9687 204L65.5859 224.538C63.8281 227.423 60.5078 229.961 56.7969 229.923L0 229.615L111.797 6.76891C114.219 1.96121 120.234 0.34583 124.844 -0.000323794C129.102 -0.269555 135.508 1.80737 137.891 6.53814L250 229.654L191.797 229.807C188.047 229.807 184.883 225.077 183.516 222.269L171.758 203.923L138.633 200.654L132.305 166.346V166.384ZM127.813 134.192L128.711 157.692C134.766 158 139.961 160.038 142.695 165.423C144.531 161.307 142.695 157.692 140.352 154.384C153.203 125.307 155.469 98.6151 143.633 68.9228C139.648 58.8843 134.297 50.3074 125.234 43.4228C120.977 46.6151 117.5 49.9612 114.727 54.2304C99.2578 78.0766 94.9609 106.846 103.008 134.077C105.039 140.961 107.734 147.654 110.117 154.23C107.969 157.538 105.586 161.615 108.125 165.654C110.469 159.846 116.289 158.154 122.227 157.884L123.281 134C123.32 132.961 124.922 131.269 125.742 131.154C126.406 131.077 127.852 133.346 127.891 134.192H127.813ZM104.18 146.269L97.9687 126.884C84.0625 134.423 86.2109 148.807 90.3906 161.807C94.1016 155.077 99.0625 150.692 104.18 146.269ZM160.078 162.846C163.594 149.846 168.047 135.884 152.734 127.538L146.211 146.654C152.539 150.846 156.523 155.73 160.078 162.884V162.846Z" fill="#0FC268"/>
<path d="M127.812 134.191C127.812 133.345 126.366 131.114 125.663 131.153C124.843 131.23 123.241 132.96 123.202 133.999L122.148 157.883C116.21 158.153 110.39 159.883 108.046 165.653C105.507 161.614 107.89 157.537 110.038 154.23C107.656 147.653 104.999 140.999 102.929 134.076C94.8821 106.845 99.179 78.0757 114.648 54.2296C117.421 49.9603 120.898 46.6142 125.156 43.4219C134.218 50.3065 139.57 58.8834 143.554 68.9219C155.351 98.6142 153.124 125.306 140.273 154.383C142.577 157.691 144.452 161.306 142.616 165.422C139.882 160.037 134.687 157.999 128.632 157.691L127.734 134.191H127.812ZM137.382 97.8065C137.382 91.1911 131.952 85.845 125.234 85.845C118.515 85.845 113.085 91.1911 113.085 97.8065C113.085 104.422 118.515 109.768 125.234 109.768C131.952 109.768 137.382 104.422 137.382 97.8065Z" fill="black"/>
<path d="M160.078 162.846C156.523 155.731 152.539 150.808 146.211 146.615L152.734 127.5C168.047 135.846 163.594 149.808 160.078 162.808V162.846Z" fill="black"/>
<path d="M104.18 146.269C99.0627 150.731 94.1017 155.077 90.3908 161.808C86.2111 148.808 84.0627 134.385 97.9689 126.885L104.18 146.269Z" fill="black"/>
<path d="M125.234 109.769C131.944 109.769 137.383 104.413 137.383 97.8072C137.383 91.2011 131.944 85.8457 125.234 85.8457C118.525 85.8457 113.086 91.2011 113.086 97.8072C113.086 104.413 118.525 109.769 125.234 109.769Z" fill="#0FC268"/>
</g>
<defs>
<clipPath id="clip0_468_1598">
<rect width="250" height="230" fill="white"/>
</clipPath>
</defs>
</svg>
